<?xml version="1.0" standalone="no"?>
<!DOCTYPE svg PUBLIC "-//W3C//DTD SVG 20010904//EN"
 "http://www.w3.org/TR/2001/REC-SVG-20010904/DTD/svg10.dtd">
<svg version="1.0" xmlns="http://www.w3.org/2000/svg"
 width="500.000000pt" height="500.000000pt" viewBox="0 0 500.000000 500.000000"
 preserveAspectRatio="xMidYMid meet">
<metadata>
Created by potrace 1.14, written by Peter Selinger 2001-2017
</metadata>
<g transform="translate(0.000000,500.000000) scale(0.100000,-0.100000)"
fill="#000000" stroke="none">
<path d="M3143 3023 c-10 -4 -13 -117 -13 -523 0 -475 1 -518 17 -524 9 -4 20
-1 25 6 4 7 8 241 8 519 0 519 -1 535 -37 522z"/>
<path d="M4510 2999 c-128 -16 -239 -87 -294 -190 -24 -44 -29 -65 -30 -128
-1 -64 3 -85 26 -132 67 -135 217 -223 391 -228 62 -2 74 -5 99 -30 54 -53
164 -92 198 -71 11 7 8 15 -14 37 -27 26 -56 80 -56 102 0 5 23 31 51 58 28
26 63 68 77 93 24 40 27 56 27 135 0 109 -15 146 -95 226 -99 101 -234 146
-380 128z m60 -151 l0 -30 63 7 c35 3 75 8 90 11 24 4 27 1 27 -26 0 -17 -5
-30 -12 -31 -7 0 -22 -2 -33 -4 -11 -2 -46 -5 -77 -7 -32 -2 -58 -5 -59 -8 0
-3 -2 -13 -4 -22 -3 -15 4 -18 36 -18 22 0 39 5 39 11 0 15 48 3 67 -16 8 -8
17 -15 21 -15 4 0 20 -12 37 -26 26 -22 29 -31 30 -83 0 -67 -15 -90 -79 -123
-38 -19 -40 -20 -53 -2 -19 25 -17 28 26 52 45 25 58 60 39 100 -17 36 -51 40
-65 9 -6 -14 -26 -41 -43 -60 -22 -25 -30 -42 -25 -56 8 -27 -33 -51 -50 -28
-8 11 -16 12 -28 6 -28 -16 -86 -13 -106 5 -27 25 -31 59 -11 104 18 40 72 92
96 92 17 0 19 51 3 67 -6 6 -28 9 -50 6 -38 -6 -39 -5 -39 26 0 31 1 31 50 31
49 0 50 1 50 29 0 31 13 41 43 33 11 -3 17 -14 17 -34z"/>
<path d="M4580 2662 c-11 -5 -14 -16 -10 -36 5 -27 6 -27 21 -10 36 42 30 64
-11 46z"/>
<path d="M4484 2622 c-58 -46 -43 -110 19 -80 14 7 17 18 13 49 -6 51 -7 51
-32 31z"/>
<path d="M146 2870 c-101 -40 -147 -112 -142 -220 7 -134 77 -195 246 -216
113 -13 150 -38 150 -100 0 -54 -50 -83 -149 -88 -88 -4 -156 21 -208 74 l-38
40 -2 -95 c-3 -94 -2 -95 25 -109 86 -43 241 -61 329 -37 111 30 185 117 189
226 6 131 -72 208 -232 229 -106 15 -146 34 -163 79 -40 105 166 138 282 46
32 -26 37 -27 38 -12 1 10 3 48 5 84 l4 67 -53 23 c-74 32 -212 37 -281 9z"/>
<path d="M933 2876 c-163 -53 -266 -190 -278 -369 -16 -244 180 -424 427 -395
140 17 252 99 310 226 41 88 45 205 12 322 -20 70 -105 158 -194 199 -67 31
-208 39 -277 17z m203 -145 c160 -73 180 -349 31 -447 -79 -52 -196 -44 -272
18 -129 107 -100 361 49 429 53 24 139 24 192 0z"/>
<path d="M2697 2883 c-4 -3 -121 -6 -262 -6 l-255 1 0 -67 0 -66 95 3 95 4 0
-316 0 -316 79 0 80 0 0 253 c0 138 0 280 0 315 l1 64 93 -3 92 -3 0 68 c1 64
-5 83 -18 69z"/>
<path d="M1735 2867 c-2 -7 -61 -172 -130 -367 -69 -195 -127 -359 -128 -365
-1 -6 30 -10 77 -10 l79 0 26 80 26 81 128 -1 127 0 27 -81 26 -81 84 -2 c98
-2 95 -20 32 149 -119 324 -209 576 -209 586 0 17 -25 23 -98 22 -39 0 -65 -5
-67 -11z m124 -332 c14 -34 31 -91 31 -103 0 -8 -25 -12 -81 -12 -79 0 -80 0
-74 23 18 62 48 157 62 195 l16 44 19 -64 c10 -34 23 -72 27 -83z"/>
<path d="M3904 2776 c-145 -35 -266 -143 -298 -264 -31 -116 5 -227 99 -308
49 -43 52 -48 44 -76 -9 -33 -29 -66 -54 -92 -41 -41 33 -46 115 -8 25 12 59
34 76 50 27 26 38 30 95 31 163 3 281 59 367 175 l30 40 -55 38 c-74 52 -108
91 -146 168 -28 57 -32 74 -32 155 l-1 90 -29 6 c-50 11 -157 8 -211 -5z m136
-153 c119 -421 115 -394 49 -385 -23 3 -29 12 -40 55 l-14 52 -58 3 c-41 2
-58 -1 -61 -10 -1 -7 -9 -33 -17 -58 -13 -43 -15 -45 -49 -42 -19 2 -36 5 -37
6 -3 3 101 371 112 399 5 13 19 17 56 17 47 0 48 -1 59 -37z"/>
<path d="M3957 2515 c-10 -42 -21 -83 -24 -91 -4 -11 5 -14 41 -14 43 0 46 2
41 23 -3 12 -14 53 -23 90 l-17 69 -18 -77z"/>
</g>
</svg>
